# xmcd CD database file
#
# Track frame offsets:
#	150
#	15644
#	30899
#	47166
#	62745
#	84306
#	108388
#	124283
#	143091
#	157019
#
# Disc length: 2271 seconds
#
# Revision: 1
# Processed by: cddbd v1.5.1PL2 Copyright (c) Steve Scherf et al.
# Submitted via: CDex 1.51
#
DISCID=7b08dd0a
DTITLE=Bullet For Teeth - Six Sides Of Fortune
DYEAR=2005
DGENRE=Hard Rock
TTITLE0=Sick Of It
TTITLE1=Checkmate
TTITLE2=Skum Central
TTITLE3=Will To Win
TTITLE4=Ashes
TTITLE5=Something's Black
TTITLE6=Six Sides Of Fortune
TTITLE7=Mainline
TTITLE8=C'nut
TTITLE9=The Fall
EXTD=YEAR: 2005
EXTT0=
EXTT1=
EXTT2=
EXTT3=
EXTT4=
EXTT5=
EXTT6=
EXTT7=
EXTT8=
EXTT9=
PLAYORDER=
